<?xml version="1.0" encoding="utf-8"?>
<!-- Generator: Adobe Illustrator 24.3.0, SVG Export Plug-In . SVG Version: 6.00 Build 0)  -->
<svg version="1.1" id="Layer_1" xmlns="http://www.w3.org/2000/svg" xmlns:xlink="http://www.w3.org/1999/xlink" x="0px" y="0px"
	 viewBox="0 0 512 512" style="enable-background:new 0 0 512 512;" xml:space="preserve">
<style type="text/css">
	.st0{fill:#5C5CB5;}
	.st1{fill:#3333A2;}
	.st2{fill:#523522;}
</style>
<g>
	<path class="st0" d="M230.7,357.9l-7,71.3c-5.4,6.6-11.3,12.3-17.6,17.4c-29.6,23.8-65.3,31.6-67.1,31.9l-13.1,2.8l-4.2-12.8
		c-0.6-1.7-11.3-35.3-6.2-72.1c1.2-8.6,3.3-17.3,6.5-25.9l60.3-39.7c4.3,4.3,9.1,8.2,14.1,11.6c3.9,2.7,8,5.1,12.2,7.2
		C215.7,353.2,223,356,230.7,357.9z"/>
	<path class="st0" d="M151.3,264.3c0.4,5.2,1.2,10.3,2.3,15.2L95,314.7c-10.5-1.7-20.4-4.9-29.5-8.9C32.8,291.6,10.1,267.3,9,266
		l-9-10l9-10c1.2-1.3,23.8-25.6,56.5-39.8c9.1-4,19.1-7.2,29.5-8.9l58.7,35.2c-1.1,4.9-1.9,10-2.3,15.2c-0.2,2.7-0.3,5.5-0.3,8.3
		C151.1,258.8,151.1,261.5,151.3,264.3z"/>
	<path class="st0" d="M223.8,82.8l-12.7,78.3c-0.8,0.4-1.6,0.8-2.4,1.2c-4.2,2.1-8.3,4.6-12.2,7.2c-3.2,2.2-6.2,4.5-9.1,7L122,141.4
		c-3.3-8.6-5.3-17.3-6.5-25.9c-5.2-36.8,5.6-70.4,6.2-72.1l4.2-12.8l13.1,2.8c1.8,0.4,37.5,8.1,67.1,31.9
		C212.4,70.5,218.4,76.2,223.8,82.8z"/>
	<path class="st1" d="M196.5,342.5c-11.1,17.8-24.7,31.4-40.4,40.5c-13,7.5-27,11.6-40.5,13.5c-7.1,1-14.1,1.4-20.7,1.4
		c-27.8,0-49.8-7.1-51.4-7.6l-12.8-4.2l2.8-13.1c0.4-2,8.1-37.5,32-67.1c8.2-10.2,18.3-19.6,30.7-26.8c15.5-8.9,34.5-13.9,55.2-14.8
		c0.4,5.2,1.2,10.3,2.3,15.2c4.6,19.8,14.7,37.5,28.8,51.3C186.8,335.1,191.5,339,196.5,342.5z"/>
	<path class="st1" d="M196.5,169.5c-3.2,2.2-6.2,4.5-9.1,7c-16.6,14.3-28.7,33.8-33.8,56c-1.1,4.9-1.9,10-2.3,15.2
		c-20.9-0.8-39.8-5.8-55.2-14.7c-12.4-7.1-22.5-16.6-30.7-26.8c-23.8-29.6-31.5-65.1-32-67.1L30.6,126l12.8-4.2
		c1.9-0.6,35.4-11.3,72.1-6.2c13.5,1.9,27.5,6,40.5,13.5C171.8,138.1,185.4,151.7,196.5,169.5z"/>
	<path class="st0" d="M396.4,115.6c-1.2,8.6-3.3,17.3-6.5,25.9l-60.3,39.7c-4.3-4.3-9.1-8.2-14.1-11.6c-3.9-2.7-7.9-5.1-12.2-7.2
		c-6.9-3.5-14.3-6.3-22-8.2l7-71.3c5.4-6.6,11.3-12.3,17.6-17.4c29.6-23.8,65.3-31.6,67.1-31.9l13.1-2.8l4.2,12.8
		C390.8,45.2,401.6,78.8,396.4,115.6z"/>
	<path class="st0" d="M512,256l-9,10c-1.2,1.3-23.8,25.6-56.5,39.8c-9.1,4-19.1,7.2-29.5,8.9l-58.7-35.2c1.1-5,1.9-10.1,2.3-15.3
		c0.2-2.7,0.3-5.5,0.3-8.2c0-2.8-0.1-5.6-0.3-8.3c-0.4-5.2-1.2-10.2-2.3-15.2l58.7-35.2c10.5,1.7,20.4,4.9,29.5,8.9
		c32.7,14.2,55.3,38.5,56.5,39.8L512,256z"/>
	<path class="st0" d="M390.2,468.5l-4.2,12.8l-13.1-2.8c-1.8-0.4-37.5-8.1-67.1-31.9c-6.3-5-12.3-10.8-17.6-17.4l12.7-78.3
		c0.8-0.4,1.5-0.7,2.3-1.1c4.3-2.1,8.4-4.6,12.2-7.3c3.2-2.2,6.2-4.5,9.1-7l65.4,35.1c3.3,8.6,5.3,17.3,6.5,25.9
		C401.6,433.2,390.8,466.8,390.2,468.5z"/>
	<path class="st1" d="M481.3,125.9l-2.8,13.1c-0.4,2-8.1,37.5-32,67.1c-8.2,10.2-18.3,19.6-30.7,26.8c-15.5,8.9-34.4,13.8-55.2,14.7
		c-0.4-5.2-1.2-10.2-2.3-15.2c-4.6-19.8-14.7-37.5-28.8-51.3c-4.3-4.3-9.1-8.2-14.1-11.6c11.1-17.8,24.7-31.4,40.4-40.5
		c13-7.5,27-11.6,40.5-13.5c36.7-5.2,70.2,5.5,72.1,6.2L481.3,125.9z"/>
	<path class="st1" d="M481.3,386.1l-12.8,4.2c-1.5,0.5-23.6,7.6-51.4,7.6c-6.6,0-13.6-0.4-20.7-1.4c-13.5-1.9-27.5-6-40.5-13.5
		c-15.7-9.1-29.3-22.7-40.4-40.5c3.2-2.2,6.2-4.5,9.1-7c16.6-14.3,28.7-33.8,33.8-56c1.1-5,1.9-10.1,2.3-15.3
		c20.8,0.7,39.7,5.9,55.2,14.8c12.4,7.1,22.5,16.6,30.7,26.8c23.8,29.6,31.5,65.1,32,67.1L481.3,386.1z"/>
	<path class="st1" d="M316,400.9c0,16.5-4.2,32-10.2,45.7c-14.2,32.7-38.5,55.1-39.9,56.4l-9.9,9l-9.9-9
		c-1.5-1.3-25.7-23.7-39.9-56.4c-6-13.7-10.2-29.2-10.2-45.7s4.3-34,12.7-51.2c6.9,3.5,14.3,6.3,22,8.2c8.1,2,16.6,3.1,25.3,3.1
		c16.1,0,31.3-3.6,44.9-10.1c0.8-0.4,1.5-0.7,2.3-1.1C311.7,367,316,384.2,316,400.9z"/>
	<path class="st1" d="M316,400.9c0,16.5-4.2,32-10.2,45.7c-14.2,32.7-38.5,55.1-39.9,56.4l-9.9,9V361c16.1,0,31.3-3.6,44.9-10.1
		c0.8-0.4,1.5-0.7,2.3-1.1C311.7,367,316,384.2,316,400.9z"/>
	<path class="st1" d="M316,111.1c0,16.5-4.3,34-12.7,51.2c-6.9-3.5-14.3-6.3-22-8.2c-8.1-2-16.6-3.1-25.3-3.1
		c-16.1,0-31.3,3.6-44.9,10.1c-0.8,0.4-1.6,0.8-2.4,1.2c-8.4-17.2-12.7-34.6-12.7-51.2c0-16.5,4.2-32,10.2-45.7
		c14.2-32.7,38.5-55.1,39.9-56.4l9.9-9l9.9,9c1.5,1.3,25.7,23.7,39.9,56.4C311.8,79.1,316,94.6,316,111.1z"/>
	<path class="st1" d="M316,111.1c0,16.5-4.3,34-12.7,51.2c-6.9-3.5-14.3-6.3-22-8.2c-8.1-2-16.6-3.1-25.3-3.1V0l9.9,9
		c1.5,1.3,25.7,23.7,39.9,56.4C311.8,79.1,316,94.6,316,111.1z"/>
	<path class="st2" d="M271,241L271,241z"/>
	<path class="st2" d="M256,211L256,211z"/>
</g>
</svg>
