<?xml version="1.0" encoding="utf-8"?>
<!-- Generator: Adobe Illustrator 24.3.0, SVG Export Plug-In . SVG Version: 6.00 Build 0)  -->
<svg version="1.1" id="Capa_1" xmlns="http://www.w3.org/2000/svg" xmlns:xlink="http://www.w3.org/1999/xlink" x="0px" y="0px"
	 viewBox="0 0 4416.7 3269.6" style="enable-background:new 0 0 4416.7 3269.6;" xml:space="preserve">
<style type="text/css">
	.st0{fill:#8ADB53;}
</style>
<path class="st0" d="M2086.6,3284.6c-328.2,0-595.2-267-595.2-595.2v-892.6c0-247.2-201.1-448.2-448.2-448.2S595,1549.6,595,1796.8
	l0.2,160.1c0,328.3-267,595.3-595.2,595.3v-147c247.2,0,448.2-201.1,448.2-448.2l-0.2-160.1c0-328.3,267-595.3,595.2-595.3
	s595.2,267,595.2,595.2v892.6c0,247.2,201.1,448.2,448.2,448.2s448.2-201.1,448.2-448.2v-67.5c0-328.2,267-595.2,595.2-595.2h243.5
	c247.2,0,448.2-201.1,448.2-448.2l-0.2-198c0-328.3,267-595.3,595.2-595.3v147c-247.2,0-448.2,201.1-448.2,448.2l0.2,198
	c0,328.3-267,595.3-595.2,595.3H3130c-247.2,0-448.2,201.1-448.2,448.2v67.5C2681.8,3017.6,2414.8,3284.6,2086.6,3284.6z"/>
</svg>
